<?xml version="1.0" encoding="utf-8"?>
<!-- Generator: Adobe Illustrator 22.1.0, SVG Export Plug-In . SVG Version: 6.00 Build 0)  -->
<svg version="1.1" id="corporate" xmlns="http://www.w3.org/2000/svg" xmlns:xlink="http://www.w3.org/1999/xlink" x="0px" y="0px"
	 viewBox="0 0 179 108" style="enable-background:new 0 0 179 108;" xml:space="preserve">
<style type="text/css">
	.st0{fill:#FFFFFF;}
</style>
<g>
	<g id="icon">
		<path class="st0" d="M4.7,49c51.4-15.4,114.5-7.1,126.7-4.8c0.7,5.3,1.2,10,1.5,14c-5.4-1.7-60.2-17.7-132.4-7.1L4.7,49"/>
		<path class="st0" d="M30.7,36.5c43.6-12.4,79.9-11.9,97.5-10.8c0.8,3.7,1.4,7.4,2,10.9c-14-2.8-48.9-7-105.3,2.7L30.7,36.5"/>
		<path class="st0" d="M57.5,23.5c20.7-6.6,48.3-11,67.2-12.2c0.7,2.5,1.3,4.9,1.9,7.4c-18.6-0.2-43,1.4-73.5,7L57.5,23.5"/>
	</g>
	<g id="austal">
		<path class="st0" d="M45.2,91.2l1,4.8h7.6l-6-27.2h-7.7L25.3,96h7.5l2.6-4.8H45.2z M44.2,85.8h-5.9l4.3-8.7h0.1L44.2,85.8z"/>
		<path class="st0" d="M77.6,68.7L75.3,83c-0.5,3.5-1.4,7.4-6,7.4c-4.6,0-4.2-3.8-3.6-7.4L68,68.7h-7.1L58.4,84
			c-0.5,3.5-1,7,1.3,9.6c1.9,2.3,5.4,3,8.6,3s6.9-0.8,9.5-3c3.1-2.6,3.8-6.1,4.4-9.6l2.4-15.3L77.6,68.7"/>
		<path class="st0" d="M109.2,70.2c-2.2-1.4-5.4-2.3-8.2-2.3c-5.5,0-10,3.6-10.9,9.1c-0.8,5.3,1.9,6.4,6.2,7.7
			c1.4,0.5,4.1,1.1,3.8,3.1c-0.3,1.9-2.2,2.8-3.8,2.8c-2.4,0-4.3-1.3-5.8-2.8l-3.9,5.7c2.5,1.9,5.7,3.1,9.1,3.1
			c2.8,0,5.7-0.8,8.1-2.6c2.4-1.9,3.5-4.6,4-7.3c0.7-4.4-1.9-6.3-5.6-7.5l-1.7-0.5c-1.2-0.4-3-1-2.7-2.6c0.2-1.5,2.1-2.3,3.4-2.3
			c1.7,0,3.3,0.7,4.4,1.8L109.2,70.2"/>
		<polygon class="st0" points="126.4,74.7 132.2,74.7 133.2,68.7 114.4,68.7 113.4,74.7 119.3,74.7 115.9,96 123,96 		"/>
		<path class="st0" d="M148.7,91.2l1,4.8h7.6l-6-27.2h-7.7L128.8,96h7.5l2.6-4.8H148.7z M147.6,85.8h-5.9l4.3-8.7h0.1L147.6,85.8z"
			/>
		<polygon class="st0" points="173.4,68.7 166.3,68.7 162,96 177.6,96 178.6,89.9 170,89.9 		"/>
	</g>
</g>
</svg>
